<?xml version="1.0" encoding="UTF-8" standalone="no"?>
<!-- Created with Inkscape (http://www.inkscape.org/) -->

<svg
   xmlns:dc="http://purl.org/dc/elements/1.1/"
   xmlns:cc="http://creativecommons.org/ns#"
   xmlns:rdf="http://www.w3.org/1999/02/22-rdf-syntax-ns#"
   xmlns:svg="http://www.w3.org/2000/svg"
   xmlns="http://www.w3.org/2000/svg"
   xmlns:sodipodi="http://sodipodi.sourceforge.net/DTD/sodipodi-0.dtd"
   xmlns:inkscape="http://www.inkscape.org/namespaces/inkscape"
   id="svg2"
   version="1.1"
   inkscape:version="0.91 r13725"
   xml:space="preserve"
   width="424.87915"
   height="810"
   viewBox="0 0 424.87916 810"
   sodipodi:docname="publicdomainq-business-man-thinking.svg"
   inkscape:export-filename="/media/sdb1/_GRAFIKA/Publicdomainq/lidi/publicdomainq-business-man-thinking.png"
   inkscape:export-xdpi="90.024696"
   inkscape:export-ydpi="90.024696"><title
     id="title7771">Business man - thinking</title><metadata
     id="metadata8"><rdf:RDF><cc:Work
         rdf:about=""><dc:format>image/svg+xml</dc:format><dc:type
           rdf:resource="http://purl.org/dc/dcmitype/StillImage" /><dc:title>Business man - thinking</dc:title><cc:license
           rdf:resource="http://creativecommons.org/publicdomain/zero/1.0/" /><dc:subject><rdf:Bag><rdf:li>man</rdf:li><rdf:li>male</rdf:li><rdf:li>think</rdf:li><rdf:li>work</rdf:li><rdf:li>office</rdf:li><rdf:li>idea</rdf:li><rdf:li>suit</rdf:li><rdf:li>tie</rdf:li><rdf:li>publicdomainq.net</rdf:li></rdf:Bag></dc:subject><dc:description>This image was adapted from a picture posted to publicdomainq.net. All of the images on these sites are in the public domain i.e. CC0. This site is only in Japanese but can be easily navigated with Google Translate.</dc:description></cc:Work><cc:License
         rdf:about="http://creativecommons.org/publicdomain/zero/1.0/"><cc:permits
           rdf:resource="http://creativecommons.org/ns#Reproduction" /><cc:permits
           rdf:resource="http://creativecommons.org/ns#Distribution" /><cc:permits
           rdf:resource="http://creativecommons.org/ns#DerivativeWorks" /></cc:License></rdf:RDF></metadata><defs
     id="defs6" /><sodipodi:namedview
     pagecolor="#ffffff"
     bordercolor="#666666"
     borderopacity="1"
     objecttolerance="10"
     gridtolerance="10"
     guidetolerance="10"
     inkscape:pageopacity="0"
     inkscape:pageshadow="2"
     inkscape:window-width="1920"
     inkscape:window-height="1125"
     id="namedview4"
     showgrid="false"
     inkscape:zoom="0.67812434"
     inkscape:cx="62.463418"
     inkscape:cy="351.75004"
     inkscape:window-x="0"
     inkscape:window-y="0"
     inkscape:window-maximized="1"
     inkscape:current-layer="svg2"
     fit-margin-top="5"
     fit-margin-left="5"
     fit-margin-bottom="5"
     fit-margin-right="5" /><g
     transform="matrix(0.45124269,0,0,-0.45124269,4.9818294,804.95544)"
     id="g7612"><path
       inkscape:connector-curvature="0"
       id="path7614"
       style="fill:#6167a9;fill-opacity:1;fill-rule:nonzero;stroke:none"
       d="m 621.387,687.98 c 0,0 189.316,-57.332 247.551,-97.949 31.882,-22.23 59.988,-65.859 34.109,-289.32 C 898.066,257.699 883.43,148.309 861.875,119.578 847.766,100.77 799.551,87.8203 768.965,87.8203 l 16.863,-83.49999 -489.265,0 7.835,67.03129 c -39.988,0 -84.679,34.1094 -84.679,34.1094 -48.227,35.301 -57.489,282.277 -58.805,358.73 -1.184,68.219 33.031,117.2 53.133,129.911 39.465,24.957 243.453,93.878 243.453,93.878 l 163.887,0" /><path
       inkscape:connector-curvature="0"
       id="path7616"
       style="fill:#ffffff;fill-opacity:1;fill-rule:nonzero;stroke:none"
       d="m 493.516,716.578 c 0,0 -53.875,-9.887 -62.871,-81.199 C 424.32,585.23 424.59,464.422 491.797,198.77 l 99.57,0.769 c 58.809,257.992 66.785,385.563 60.449,435.84 -8.996,71.312 -62.871,81.199 -62.871,81.199 l -95.429,0" /><path
       inkscape:connector-curvature="0"
       id="path7618"
       style="fill:#f0374b;fill-opacity:1;fill-rule:nonzero;stroke:none"
       d="M 517.676,91.3516 C 508.008,125.34 483.164,222.289 483.164,222.289 l 40.176,313.012 -10.535,43.519 -0.176,10.532 28.601,37.687 29.114,-38.348 -0.688,-9.871 -10.535,-43.519 40.098,-310.653 c 0,0 -24.278,-103.238 -33.723,-136.4371 L 543.547,19.2305 517.676,91.3516" /><path
       inkscape:connector-curvature="0"
       id="path7620"
       style="fill:#fcd0b4;fill-opacity:1;fill-rule:nonzero;stroke:none"
       d="m 602.969,735.141 c 0,0 2.109,-34.2 1.609,-51.809 0,0 -18.594,-44.871 -63.523,-58.211 -44.922,13.34 -63.528,58.211 -63.528,58.211 0.246,-0.281 -1.863,51.809 -1.863,51.809" /><path
       inkscape:connector-curvature="0"
       id="path7622"
       style="fill:#7b4b4b;fill-opacity:1;fill-rule:nonzero;stroke:none"
       d="m 93.1563,1112.33 c -28.8008,54.19 -29.7657,87.56 -29.7657,87.56 l -11.664,-33.38 c -116.9688,278.97 32.4648,354.6 32.4648,354.6 0,0 -65.0351,10.05 -72.3047,71.48 0,0 88.6763,-7.8 174.9453,61.25 79.828,63.9 198.637,117.05 327.582,111.55 116.328,-4.97 150.106,-81.96 150.106,-81.96 0,0 114.757,0.37 174.894,-114.42 64.707,-123.49 44.844,-255.1 44.844,-255.1 l -16.797,32.89 c 0,0 5.039,-51.75 -13.926,-124.17 L 846.25,1186 117.645,1062.63 l -24.4887,49.7" /><path
       inkscape:connector-curvature="0"
       id="path7624"
       style="fill:#c79485;fill-opacity:1;fill-rule:nonzero;stroke:none"
       d="m 95.5273,1107.52 22.1177,-44.89 22.117,3.76 -43.7893,40.84 c -0.0938,0 -0.3008,0.18 -0.4454,0.29 z m 743.8867,461.49 c -60.137,114.79 -174.894,114.42 -174.894,114.42 0,0 -33.778,76.99 -150.106,81.96 -128.945,5.5 -247.754,-47.65 -327.582,-111.55 -86.269,-69.05 -174.9453,-61.25 -174.9453,-61.25 7.2696,-61.43 72.3047,-71.48 72.3047,-71.48 0,0 -149.4336,-75.63 -32.4648,-354.6 l 1.8945,5.44 c -1.1094,2.9 -2.0703,5.72 -2.6992,8.33 -60.8594,255.78 70.9021,345.41 70.9021,345.41 0,0 8.02,49.61 94.262,118.66 79.848,63.9 190.344,106.19 319.402,105.48 127.012,-0.7 141.004,-103 141.004,-103 0,0 121.328,-5.53 182.141,-120.92 -5.371,14.33 -11.699,28.79 -19.219,43.1" /><path
       inkscape:connector-curvature="0"
       id="path7626"
       style="fill:#fcd0b4;fill-opacity:1;fill-rule:nonzero;stroke:none"
       d="M 207.836,913.102 C 106.563,893.328 40.3125,1027.32 68.9023,1082.98 c 20.6133,40.15 76.4887,24.5 89.2067,6" /><path
       inkscape:connector-curvature="0"
       id="path7628"
       style="fill:#de9284;fill-opacity:1;fill-rule:nonzero;stroke:none"
       d="m 164.172,1031.94 c 13.672,-26.14 32.051,-65.018 14.172,-74.393 -17.875,-9.336 -43.446,4.238 -57.117,30.391 -13.684,26.142 -10.274,54.942 7.601,64.262 17.895,9.37 21.68,5.87 35.344,-20.26" /><path
       inkscape:connector-curvature="0"
       id="path7630"
       style="fill:#fcd0b4;fill-opacity:1;fill-rule:nonzero;stroke:none"
       d="m 807.637,1001.24 c 102.676,10.17 127.597,157.56 84.199,202.66 -31.301,32.52 -80.313,1.47 -87.18,-19.92" /><path
       inkscape:connector-curvature="0"
       id="path7632"
       style="fill:#de9284;fill-opacity:1;fill-rule:nonzero;stroke:none"
       d="m 477.773,753.371 123.165,0 1.335,-46.742 c 0,0 -49.57,-46.098 -127.976,-24.668 l 2.324,23.519 1.152,47.891" /><path
       inkscape:connector-curvature="0"
       id="path7634"
       style="fill:#fcd0b4;fill-opacity:1;fill-rule:nonzero;stroke:none"
       d="m 238.645,1433.76 c -117.399,-48.15 -93.356,-253.52 -93.356,-253.52 13.246,-109.36 45.68,-296.006 122.406,-357.595 76.207,-61.184 145.075,-86.543 203.914,-95.063 0,0 72.993,-12.941 136.758,20.078 53.918,25.11 112.571,69.184 167.973,149.711 60.75,88.348 28.191,305.559 9.488,404.589 -5.535,29.36 -26.726,60.73 -35.035,68.13 -120.969,107.42 -131.809,183.22 -131.809,183.22 l -11.941,-19.57 c -22.648,-30.41 -67.648,-63.99 -155.148,-90.31 0,0 16.015,113.49 38.769,136.43 0,0 -91.035,-158.8 -268.437,-219.16 0,0 2.097,25.48 12.238,59.91 l 4.18,13.15" /><path
       inkscape:connector-curvature="0"
       id="path7636"
       style="fill:#231f20;fill-opacity:1;fill-rule:nonzero;stroke:none"
       d="m 547.988,1322.43 c 4.383,-2.85 14.043,5.06 28.028,16.15 13.839,10.9 33.261,24.94 53.449,24.55 20.242,0.12 39.402,-13.83 51.187,-25.25 12.231,-11.56 17.473,-20.84 22.473,-20.65 2.48,0.16 4.785,3.66 5.059,10.16 0.312,6.41 -1.465,15.43 -6.309,25.24 -4.855,9.8 -12.656,20.66 -24.57,29.98 -11.739,9.27 -28.555,17.02 -47.637,17.05 -19.133,0.21 -36.016,-7.46 -47.688,-16.33 -11.929,-8.92 -19.863,-18.97 -25.398,-27.72 -10.879,-17.71 -12.644,-30.62 -8.594,-33.18" /><path
       inkscape:connector-curvature="0"
       id="path7638"
       style="fill:#f7939c;fill-opacity:1;fill-rule:nonzero;stroke:none"
       d="m 339.27,1027.02 c 1.929,-13.16 -26.094,-28.176 -62.614,-33.536 -36.511,-5.371 -67.676,0.938 -69.59,14.106 -1.937,13.14 26.098,28.12 62.606,33.49 36.512,5.37 67.664,-0.94 69.598,-14.06" /><path
       inkscape:connector-curvature="0"
       id="path7640"
       style="fill:#f7939c;fill-opacity:1;fill-rule:nonzero;stroke:none"
       d="m 787.344,1092.84 c 1.941,-13.16 -26.094,-28.14 -62.598,-33.5 -36.523,-5.39 -67.676,0.92 -69.609,14.07 -1.922,13.14 26.101,28.13 62.617,33.5 36.516,5.35 67.668,-0.94 69.59,-14.07" /><path
       inkscape:connector-curvature="0"
       id="path7642"
       style="fill:#de9284;fill-opacity:1;fill-rule:nonzero;stroke:none"
       d="m 815.254,1127.61 c -5.566,-28.96 -11.973,-71.51 7.832,-75.34 19.824,-3.79 40.398,16.59 45.977,45.55 5.585,28.97 -5.958,55.55 -25.762,59.34 -19.844,3.82 -22.449,-0.59 -28.047,-29.55" /><path
       inkscape:connector-curvature="0"
       id="path7644"
       style="fill:#c79485;fill-opacity:1;fill-rule:nonzero;stroke:none"
       d="m 358.422,1576.2 c 0,0 -108.422,-43 -130.863,-210.65 l 36.921,13.25 c 0,0 19.915,126.7 93.942,197.4" /><path
       inkscape:connector-curvature="0"
       id="path7646"
       style="fill:#c79485;fill-opacity:1;fill-rule:nonzero;stroke:none"
       d="m 517.449,1597.27 c 0,0 -46.785,-17.12 -60.113,-149.76 l 30.828,9.84 c 0,0 -2.351,91.15 29.285,139.92" /><path
       inkscape:connector-curvature="0"
       id="path7648"
       style="fill:#c6cbeb;fill-opacity:1;fill-rule:nonzero;stroke:none"
       d="m 195.02,144.281 c 0,0 -29.215,202.321 -31.758,296.379 -2.348,87.039 4.664,117.84 42.343,149.371 37.676,31.539 168.34,76.867 234.2,88.641 l -7.207,-29.84 c 0,0 -183.438,-35.102 -228.172,-96.434 -35.309,-48.429 -9.406,-408.117 -9.406,-408.117" /><path
       inkscape:connector-curvature="0"
       id="path7650"
       style="fill:#c6cbeb;fill-opacity:1;fill-rule:nonzero;stroke:none"
       d="M 643.516,677.059 C 850.117,625.32 885.41,587.68 896.379,557.879 c 5.496,-14.891 12.547,-32.93 9.012,-31.359 -11.836,14.05 -27.039,44.699 -68.203,63.511 -27.071,12.367 -189.356,61.168 -189.356,61.168 l -4.316,25.86" /><path
       inkscape:connector-curvature="0"
       id="path7652"
       style="fill:#c2d0d6;fill-opacity:1;fill-rule:nonzero;stroke:none"
       d="m 523.34,540.898 -9.485,47.903 -54.644,-64.192 64.129,16.289" /><path
       inkscape:connector-curvature="0"
       id="path7654"
       style="fill:#c2d0d6;fill-opacity:1;fill-rule:nonzero;stroke:none"
       d="m 562.434,540.898 9.48,47.903 54.649,-64.192 -64.129,16.289" /><path
       inkscape:connector-curvature="0"
       id="path7656"
       style="fill:#fbc8a6;fill-opacity:1;fill-rule:nonzero;stroke:none"
       d="m 291.035,267.551 4.649,-23.332 4.062,-1.61 c 5.098,-1.589 10.527,-4.097 16.215,-7.871 0,0 57.457,2.043 85.176,6.774 l 2.222,4.707 c 0.121,2.261 0.364,4.672 0.723,7.222 4.488,31.911 21.211,54.579 42.07,65.411 l 4.336,3.097 c 0,0 -34.472,21.633 -60.172,18.942 -25.683,-2.719 -77.738,-27.063 -100.039,-70.321 l 0.758,-3.019" /><path
       inkscape:connector-curvature="0"
       id="path7658"
       style="fill:#fbc8a6;fill-opacity:1;fill-rule:nonzero;stroke:none"
       d="m 752.168,245.961 c 7.969,4.117 17.383,10.059 23.223,17.277 0,0 52.656,-13.988 72.558,-0.906 19.903,13.09 -17.422,26.539 -17.422,26.539 0,0 22.207,-1.769 28.645,8.891 8.711,14.418 -28.117,23.898 -28.117,23.898 0,0 26.867,12.36 8.175,22.942 -19.375,10.949 -57.453,27.378 -100.089,18.257 -42.129,-9.058 -82.891,-56.648 -99.219,-77.789 0,0 111.582,-38.05 112.246,-39.109" /><path
       inkscape:connector-curvature="0"
       id="path7660"
       style="fill:#ffffff;fill-opacity:1;fill-rule:nonzero;stroke:none"
       d="m 496.426,325.07 c 0,0 -26.094,8.52 -35.84,2.731 -9.727,-5.813 -41.008,-25.922 -46.41,-45.531 -5.406,-19.61 -11.324,-52.149 -8.633,-59.59 2.711,-7.43 21.566,-18.821 21.566,-18.821 0,0 -3.75,45.711 12.153,69 18.922,27.711 43.648,40.743 48.367,43.43 4.734,2.699 8.797,8.781 8.797,8.781" /><path
       inkscape:connector-curvature="0"
       id="path7662"
       style="fill:#6167a9;fill-opacity:1;fill-rule:nonzero;stroke:none"
       d="m 644.297,279.539 -119.375,42.93 c 0,0 -52.93,0.582 -68.223,-27.059 l 28.828,-189.949 87.801,29.758 21.965,-8.59 49.004,152.91" /><path
       inkscape:connector-curvature="0"
       id="path7664"
       style="fill:#c6cbeb;fill-opacity:1;fill-rule:nonzero;stroke:none"
       d="m 480.82,306.191 c 0,0 32.93,21.168 53.313,14.11 L 705.059,259.148 480.82,306.191" /><path
       inkscape:connector-curvature="0"
       id="path7666"
       style="fill:#c6cbeb;fill-opacity:1;fill-rule:nonzero;stroke:none"
       d="m 248.73,226.219 c 0,0 12.54,18.031 32.145,18.031 19.605,0 35.086,-9.512 35.086,-9.512 l 85.176,6.774 3.621,-21.563 -101.145,-10.199 c 0,0 -22.734,34.488 -54.883,16.469" /><path
       inkscape:connector-curvature="0"
       id="path7668"
       style="fill:none;stroke:#231f20;stroke-width:14;stroke-linecap:round;stroke-linejoin:round;stroke-miterlimit:10;stroke-dasharray:none;stroke-opacity:1"
       d="M 446.113,681.762 C 402.227,667.699 309.652,636.73 280.875,626.879 249.59,616.191 185.879,592.98 170.883,531.961 151.813,454.25 175.746,240.828 189.391,164.461 196.395,125.18 235.742,58.1289 350.273,75.8516 462.676,93.25 557.754,135.57 557.754,135.57" /><path
       inkscape:connector-curvature="0"
       id="path7670"
       style="fill:none;stroke:#231f20;stroke-width:14;stroke-linecap:round;stroke-linejoin:round;stroke-miterlimit:10;stroke-dasharray:none;stroke-opacity:1"
       d="M 637.91,680.77 C 682.578,666.43 759.602,640.98 786.699,631.711 817.988,621.02 888.438,600.102 903.438,539.07 922.52,461.328 898.105,248.148 884.492,171.801 877.461,132.52 854.785,74.332 730.254,93.4102 617.813,110.66 434.137,191.23 434.137,191.23 c 0,0 -11.801,20.911 -9.078,43.641 5.211,43.399 55.461,94.551 100.879,87.25 l 243.164,-82.242" /><path
       inkscape:connector-curvature="0"
       id="path7672"
       style="fill:none;stroke:#231f20;stroke-width:14;stroke-linecap:round;stroke-linejoin:round;stroke-miterlimit:10;stroke-dasharray:none;stroke-opacity:1"
       d="m 502.773,322.121 -29.101,5 c -32.266,-1.359 -62.715,-28.18 -69.063,-73.172 -4.011,-28.34 7.711,-39.527 7.711,-39.527 l 17.719,-12.75" /><path
       inkscape:connector-curvature="0"
       id="path7674"
       style="fill:none;stroke:#231f20;stroke-width:14;stroke-linecap:round;stroke-linejoin:round;stroke-miterlimit:10;stroke-dasharray:none;stroke-opacity:1"
       d="m 451.406,323.051 c 0,0 -34.75,21.801 -60.676,19.09 -25.902,-2.743 -78.39,-27.27 -100.882,-70.903" /><path
       inkscape:connector-curvature="0"
       id="path7676"
       style="fill:none;stroke:#231f20;stroke-width:14;stroke-linecap:round;stroke-linejoin:round;stroke-miterlimit:10;stroke-dasharray:none;stroke-opacity:1"
       d="M 251.664,463.48 295.297,244.648" /><path
       inkscape:connector-curvature="0"
       id="path7678"
       style="fill:none;stroke:#231f20;stroke-width:14;stroke-linecap:round;stroke-linejoin:round;stroke-miterlimit:10;stroke-dasharray:none;stroke-opacity:1"
       d="M 828.477,470.371 805.43,360.301" /><path
       inkscape:connector-curvature="0"
       id="path7680"
       style="fill:none;stroke:#231f20;stroke-width:14;stroke-linecap:round;stroke-linejoin:round;stroke-miterlimit:10;stroke-dasharray:none;stroke-opacity:1"
       d="m 251.664,230.332 c 0,0 25.91,29.988 64.09,4.746 0,0 57.941,2.07 85.894,6.844" /><path
       inkscape:connector-curvature="0"
       id="path7682"
       style="fill:none;stroke:#231f20;stroke-width:14;stroke-linecap:round;stroke-linejoin:round;stroke-miterlimit:10;stroke-dasharray:none;stroke-opacity:1"
       d="m 752.559,245.672 c 8.007,4.137 17.5,10.098 23.359,17.379 0,0 53.105,-14.121 73.184,-0.93 20.07,13.219 -17.586,26.789 -17.586,26.789 0,0 22.39,-1.789 28.894,8.949 8.789,14.532 -28.359,24.102 -28.359,24.102 0,0 27.097,12.461 8.262,23.141 -19.551,11.039 -57.95,27.617 -100.958,18.398 -43.496,-9.352 -83.808,-57.98 -99.433,-78.43" /><path
       inkscape:connector-curvature="0"
       id="path7684"
       style="fill:none;stroke:#231f20;stroke-width:14;stroke-linecap:round;stroke-linejoin:round;stroke-miterlimit:10;stroke-dasharray:none;stroke-opacity:1"
       d="m 831.516,288.91 c 0,0 -29.895,13.41 -46.184,12.82 -30.371,-1.082 -51.477,-18.402 -51.477,-18.402" /><path
       inkscape:connector-curvature="0"
       id="path7686"
       style="fill:none;stroke:#231f20;stroke-width:14;stroke-linecap:round;stroke-linejoin:round;stroke-miterlimit:10;stroke-dasharray:none;stroke-opacity:1"
       d="m 832.051,321.961 c 0,0 -38.418,12.93 -55.977,13.648 -16.679,0.653 -37.375,-0.539 -63.144,-23.16" /><path
       inkscape:connector-curvature="0"
       id="path7688"
       style="fill:none;stroke:#231f20;stroke-width:14;stroke-linecap:round;stroke-linejoin:round;stroke-miterlimit:10;stroke-dasharray:none;stroke-opacity:1"
       d="M 306.887,72.1484 297.797,7" /><path
       inkscape:connector-curvature="0"
       id="path7690"
       style="fill:none;stroke:#231f20;stroke-width:14;stroke-linecap:round;stroke-linejoin:round;stroke-miterlimit:10;stroke-dasharray:none;stroke-opacity:1"
       d="M 771.816,82.6992 783.73,7" /><path
       inkscape:connector-curvature="0"
       id="path7692"
       style="fill:#ffffff;fill-opacity:1;fill-rule:nonzero;stroke:none"
       d="m 384.695,1154.75 c 6.418,-43.61 -15.5,-82.96 -48.925,-87.87 -33.434,-4.9 -65.754,26.45 -72.161,70.1 -6.414,43.57 15.516,82.94 48.954,87.85 33.433,4.92 65.734,-26.48 72.132,-70.08" /><path
       inkscape:connector-curvature="0"
       id="path7694"
       style="fill:#231f20;fill-opacity:1;fill-rule:nonzero;stroke:none"
       d="m 376.941,1141.96 c 4.368,-29.72 -8.82,-56.25 -29.421,-59.26 -20.61,-3.04 -40.864,18.59 -45.235,48.28 -4.355,29.73 8.805,56.25 29.426,59.3 20.613,3.05 40.863,-18.59 45.23,-48.32" /><path
       inkscape:connector-curvature="0"
       id="path7696"
       style="fill:#ffffff;fill-opacity:1;fill-rule:nonzero;stroke:none"
       d="m 373.645,1159.88 c 0.89,-6.1 -3.325,-11.77 -9.407,-12.63 -6.09,-0.91 -11.761,3.29 -12.668,9.4 -0.894,6.07 3.336,11.74 9.43,12.64 6.078,0.89 11.742,-3.32 12.645,-9.41" /><path
       inkscape:connector-curvature="0"
       id="path7698"
       style="fill:#d8e5f6;fill-opacity:1;fill-rule:nonzero;stroke:none"
       d="m 322.359,1199.44 c 15.317,2.26 30.321,1.62 44.512,-1.29 -14.691,15.87 -33.875,24.46 -53.441,21.56 -22.121,-3.24 -39.551,-20.31 -48.371,-43.8 16.152,11.93 35.629,20.35 57.3,23.53" /><path
       inkscape:connector-curvature="0"
       id="path7700"
       style="fill:none;stroke:#231f20;stroke-width:16;stroke-linecap:round;stroke-linejoin:round;stroke-miterlimit:10;stroke-dasharray:none;stroke-opacity:1"
       d="m 371.352,1199.54 c -30.461,45.65 -122.399,36.56 -111.657,-60.68" /><path
       inkscape:connector-curvature="0"
       id="path7702"
       style="fill:#ffffff;fill-opacity:1;fill-rule:nonzero;stroke:none"
       d="m 566.738,1181.51 c 6.407,-43.64 38.7,-75.02 72.141,-70.1 33.445,4.91 55.359,44.26 48.953,87.88 -6.406,43.61 -38.711,75 -72.168,70.07 -33.437,-4.92 -55.332,-44.25 -48.926,-87.85" /><path
       inkscape:connector-curvature="0"
       id="path7704"
       style="fill:#231f20;fill-opacity:1;fill-rule:nonzero;stroke:none"
       d="m 577.852,1171.47 c 4.355,-29.7 24.628,-51.34 45.234,-48.3 20.613,3.03 33.789,29.57 29.426,59.27 -4.36,29.72 -24.621,51.35 -45.246,48.33 -20.606,-3.03 -33.789,-29.57 -29.414,-59.3" /><path
       inkscape:connector-curvature="0"
       id="path7706"
       style="fill:#ffffff;fill-opacity:1;fill-rule:nonzero;stroke:none"
       d="m 627.031,1197.12 c 0.899,-6.1 6.563,-10.3 12.657,-9.41 6.093,0.89 10.312,6.56 9.421,12.63 -0.906,6.1 -6.57,10.31 -12.671,9.41 -6.086,-0.89 -10.305,-6.56 -9.407,-12.63" /><path
       inkscape:connector-curvature="0"
       id="path7708"
       style="fill:#d8e5f6;fill-opacity:1;fill-rule:nonzero;stroke:none"
       d="m 612.805,1242.11 c -15.325,-2.24 -29.504,-7.16 -42.258,-14.04 9.512,19.42 25.41,33.17 44.973,36.05 22.125,3.24 43.718,-8.1 58.933,-28.05 -18.906,6.77 -39.988,9.22 -61.648,6.04" /><path
       inkscape:connector-curvature="0"
       id="path7710"
       style="fill:none;stroke:#231f20;stroke-width:16;stroke-linecap:round;stroke-linejoin:round;stroke-miterlimit:10;stroke-dasharray:none;stroke-opacity:1"
       d="m 566.641,1228.23 c 16.047,52.5 106.699,70.22 124.382,-26.01" /><path
       inkscape:connector-curvature="0"
       id="path7712"
       style="fill:none;stroke:#231f20;stroke-width:14;stroke-linecap:round;stroke-linejoin:round;stroke-miterlimit:10;stroke-dasharray:none;stroke-opacity:1"
       d="m 626.113,1614.46 c 0,0 38.614,-107.09 -174.218,-171.03 0,0 16.015,113.49 38.769,136.43 0,0 -91.035,-158.8 -268.437,-219.16 0,0 11.773,142.25 113.234,207.8" /><path
       inkscape:connector-curvature="0"
       id="path7714"
       style="fill:none;stroke:#231f20;stroke-width:14;stroke-linecap:round;stroke-linejoin:round;stroke-miterlimit:10;stroke-dasharray:none;stroke-opacity:1"
       d="m 486.836,1063.17 c 0,0 -38.418,-22 -31.594,-40.6 6.809,-18.61 24.367,-38.07 24.367,-38.07" /><path
       inkscape:connector-curvature="0"
       id="path7716"
       style="fill:none;stroke:#231f20;stroke-width:14;stroke-linecap:round;stroke-linejoin:round;stroke-miterlimit:10;stroke-dasharray:none;stroke-opacity:1"
       d="m 455.938,1134.62 c 0,0 19.98,-52.62 20.312,-77.09" /><path
       inkscape:connector-curvature="0"
       id="path7718"
       style="fill:none;stroke:#231f20;stroke-width:14;stroke-linecap:round;stroke-linejoin:round;stroke-miterlimit:10;stroke-dasharray:none;stroke-opacity:1"
       d="M 207.836,913.102 C 106.563,893.328 40.3125,1027.32 68.9023,1082.98 c 20.6133,40.15 76.4887,24.5 89.2067,6" /><path
       inkscape:connector-curvature="0"
       id="path7720"
       style="fill:none;stroke:#231f20;stroke-width:14;stroke-linecap:round;stroke-linejoin:round;stroke-miterlimit:10;stroke-dasharray:none;stroke-opacity:1"
       d="m 171.582,1026.67 c 0,0 -44.426,64.86 -78.3242,26.4" /><path
       inkscape:connector-curvature="0"
       id="path7722"
       style="fill:none;stroke:#231f20;stroke-width:14;stroke-linecap:round;stroke-linejoin:round;stroke-miterlimit:10;stroke-dasharray:none;stroke-opacity:1"
       d="m 807.637,1001.24 c 102.676,10.17 127.597,157.56 84.199,202.66 -31.301,32.52 -80.313,1.47 -87.18,-19.92" /><path
       inkscape:connector-curvature="0"
       id="path7724"
       style="fill:none;stroke:#231f20;stroke-width:14;stroke-linecap:round;stroke-linejoin:round;stroke-miterlimit:10;stroke-dasharray:none;stroke-opacity:1"
       d="m 809.688,1120.42 c 0,0 23.886,74.89 67.414,47.82" /><path
       inkscape:connector-curvature="0"
       id="path7726"
       style="fill:none;stroke:#231f20;stroke-width:14;stroke-linecap:round;stroke-linejoin:round;stroke-miterlimit:10;stroke-dasharray:none;stroke-opacity:1"
       d="m 618.984,1553.31 c 0,0 10.84,-75.8 131.809,-183.22 8.309,-7.4 29.5,-38.77 35.035,-68.13 C 804.531,1202.93 837.09,985.719 776.34,897.371 720.938,816.844 662.285,772.77 608.367,747.66 544.602,714.641 471.609,727.582 471.609,727.582 c -58.839,8.52 -127.707,33.879 -203.914,95.063 -76.726,61.589 -109.16,248.235 -122.406,357.595 0,0 -24.043,205.37 93.356,253.52" /><path
       inkscape:connector-curvature="0"
       id="path7728"
       style="fill:none;stroke:#231f20;stroke-width:14;stroke-linecap:round;stroke-linejoin:round;stroke-miterlimit:10;stroke-dasharray:none;stroke-opacity:1"
       d="m 69.5273,1218.25 c -9.3632,-28.5 -17.8007,-51.74 -17.8007,-51.74 -116.9688,278.97 32.4648,354.6 32.4648,354.6 0,0 -65.0351,10.05 -72.3047,71.48 0,0 88.6763,-7.8 174.9453,61.25 79.828,63.9 198.637,117.05 327.582,111.55 116.328,-4.97 150.106,-81.96 150.106,-81.96 0,0 114.757,0.37 174.894,-114.42 64.707,-123.49 44.844,-255.1 44.844,-255.1 0,0 -15.117,30.63 -33.098,63.23" /><path
       inkscape:connector-curvature="0"
       id="path7730"
       style="fill:none;stroke:#231f20;stroke-width:14;stroke-linecap:round;stroke-linejoin:round;stroke-miterlimit:10;stroke-dasharray:none;stroke-opacity:1"
       d="m 63.3906,1199.89 c 0,0 0.9649,-33.37 29.7657,-87.56" /><path
       inkscape:connector-curvature="0"
       id="path7732"
       style="fill:none;stroke:#231f20;stroke-width:14;stroke-linecap:round;stroke-linejoin:round;stroke-miterlimit:10;stroke-dasharray:none;stroke-opacity:1"
       d="m 867.461,1346.8 c 0,0 5.039,-51.75 -13.926,-124.17" /><path
       inkscape:connector-curvature="0"
       id="path7734"
       style="fill:#231f20;fill-opacity:1;fill-rule:nonzero;stroke:none"
       d="m 547.988,1322.43 c 4.383,-2.85 14.043,5.06 28.028,16.15 13.839,10.9 33.261,24.94 53.449,24.55 20.242,0.12 39.402,-13.83 51.187,-25.25 12.231,-11.56 17.473,-20.84 22.473,-20.65 2.48,0.16 4.785,3.66 5.059,10.16 0.312,6.41 -1.465,15.43 -6.309,25.24 -4.855,9.8 -12.656,20.66 -24.57,29.98 -11.739,9.27 -28.555,17.02 -47.637,17.05 -19.133,0.21 -36.016,-7.46 -47.688,-16.33 -11.929,-8.92 -19.863,-18.97 -25.398,-27.72 -10.879,-17.71 -12.644,-30.62 -8.594,-33.18" /><path
       inkscape:connector-curvature="0"
       id="path7736"
       style="fill:#231f20;fill-opacity:1;fill-rule:nonzero;stroke:none"
       d="m 355.305,1352.96 c 4.621,-1.34 6.515,-14.18 1.019,-34.27 -2.855,-9.96 -7.691,-21.8 -16.66,-33.72 -8.758,-11.75 -22.816,-23.82 -41.226,-28.96 -18.348,-5.29 -36.661,-2.55 -50.516,3.08 -14.031,5.65 -24.543,13.87 -31.945,21.94 -7.368,8.06 -11.614,16.24 -13.122,22.46 -1.542,6.33 -0.281,10.37 2.024,11.22 4.769,1.58 12.379,-5.91 27.344,-13.6 14.515,-7.68 36.8,-15.72 56.211,-9.96 19.496,5.26 34.238,24.14 44.476,38.48 10.332,14.55 17.406,24.85 22.395,23.33" /><path
       inkscape:connector-curvature="0"
       id="path7738"
       style="fill:none;stroke:#231f20;stroke-width:14;stroke-linecap:round;stroke-linejoin:round;stroke-miterlimit:10;stroke-dasharray:none;stroke-opacity:1"
       d="m 512.461,116.328 c 9.238,-30.8397 19.434,-62.7186 30.691,-95.5389" /><path
       inkscape:connector-curvature="0"
       id="path7740"
       style="fill:none;stroke:#231f20;stroke-width:14;stroke-linecap:round;stroke-linejoin:round;stroke-miterlimit:10;stroke-dasharray:none;stroke-opacity:1"
       d="M 472.168,707.25 C 456.074,697.129 435.914,676.43 430.723,635.262 426.168,599.141 427.797,488.82 459.836,327.121" /><path
       inkscape:connector-curvature="0"
       id="path7742"
       style="fill:none;stroke:#231f20;stroke-width:14;stroke-linecap:round;stroke-linejoin:round;stroke-miterlimit:10;stroke-dasharray:none;stroke-opacity:1"
       d="M 576.328,136.32 C 566.445,98.9297 555.41,60.3203 543.152,20.7891" /><path
       inkscape:connector-curvature="0"
       id="path7744"
       style="fill:none;stroke:#231f20;stroke-width:14;stroke-linecap:round;stroke-linejoin:round;stroke-miterlimit:10;stroke-dasharray:none;stroke-opacity:1"
       d="m 606.66,709.391 c 16.543,-9.231 39.492,-29.809 45.078,-74.129 C 656.543,597.23 648.613,468.25 612.93,292.82" /><path
       inkscape:connector-curvature="0"
       id="path7746"
       style="fill:none;stroke:#231f20;stroke-width:12;stroke-linecap:round;stroke-linejoin:round;stroke-miterlimit:10;stroke-dasharray:none;stroke-opacity:1"
       d="m 430.43,677.781 -114.016,-83.57 46.027,-82.332 -71.742,-60.777 c 0,0 25.063,-53.524 59.981,-121.461" /><path
       inkscape:connector-curvature="0"
       id="path7748"
       style="fill:none;stroke:#231f20;stroke-width:14;stroke-linecap:round;stroke-linejoin:round;stroke-miterlimit:10;stroke-dasharray:none;stroke-opacity:1"
       d="m 603.809,742.57 c 0,0 0.793,-41.73 3.164,-58.332 0,0 -20.989,-45.777 -65.918,-59.117 -44.922,13.34 -67.657,58.719 -67.657,58.719 1.192,19.371 3.106,41.359 3.106,41.359" /><path
       inkscape:connector-curvature="0"
       id="path7750"
       style="fill:none;stroke:#231f20;stroke-width:12;stroke-linecap:round;stroke-linejoin:round;stroke-miterlimit:10;stroke-dasharray:none;stroke-opacity:1"
       d="m 661.484,671.672 112.129,-77.461 -46.035,-82.332 71.746,-60.777 c 0,0 -16.687,-32.614 -43.289,-83.364" /><path
       inkscape:connector-curvature="0"
       id="path7752"
       style="fill:none;stroke:#231f20;stroke-width:12;stroke-linecap:round;stroke-linejoin:round;stroke-miterlimit:10;stroke-dasharray:none;stroke-opacity:1"
       d="M 512.805,585.121 523.34,535.301 496.172,321.469" /><path
       inkscape:connector-curvature="0"
       id="path7754"
       style="fill:none;stroke:#231f20;stroke-width:12;stroke-linecap:round;stroke-linejoin:round;stroke-miterlimit:10;stroke-dasharray:none;stroke-opacity:1"
       d="M 569.656,585.121 559.121,535.301 589.57,303.039" /><path
       inkscape:connector-curvature="0"
       id="path7756"
       style="fill:none;stroke:#231f20;stroke-width:12;stroke-linecap:round;stroke-linejoin:round;stroke-miterlimit:10;stroke-dasharray:none;stroke-opacity:1"
       d="M 651.738,635.262 C 647.676,577.629 626.504,514.711 626.504,514.711 L 541.23,627.039 455.957,514.711 c 0,0 -21.176,62.918 -25.234,120.551" /><path
       inkscape:connector-curvature="0"
       id="path7758"
       style="fill:none;stroke:#231f20;stroke-width:14;stroke-linecap:round;stroke-linejoin:round;stroke-miterlimit:10;stroke-dasharray:none;stroke-opacity:1"
       d="m 493.113,813.777 c 0,0 23.528,22.598 68.02,-2.656" /></g></svg>